<?xml version="1.0" encoding="UTF-8" standalone="no"?>
<!DOCTYPE svg PUBLIC "-//W3C//DTD SVG 1.1//EN" "http://www.w3.org/Graphics/SVG/1.1/DTD/svg11.dtd">
<svg viewBox="0 0 40 40" version="1.1" xmlns="http://www.w3.org/2000/svg" xmlns:xlink="http://www.w3.org/1999/xlink" xml:space="preserve">
    <g class="paperclip" transform="matrix(0.0148522,-0.0158228,0.0158228,0.0148522,-1.80218,12.0506)">
        <path d="M486.4,1024C359.357,1024 256,920.643 256,793.6L256,179.2C256,80.389 336.389,0 435.2,0C534.011,0 614.4,80.389 614.4,179.2L614.4,742.4C614.4,812.979 556.979,870.4 486.4,870.4C415.821,870.4 358.4,812.979 358.4,742.4L358.4,435.2C358.4,421.062 369.862,409.6 384,409.6C398.138,409.6 409.6,421.062 409.6,435.2L409.6,742.4C409.6,784.749 444.053,819.2 486.4,819.2C528.749,819.2 563.2,784.749 563.2,742.4L563.2,179.2C563.2,108.621 505.779,51.2 435.2,51.2C364.621,51.2 307.2,108.621 307.2,179.2L307.2,793.6C307.2,892.411 387.589,972.8 486.4,972.8C585.211,972.8 665.6,892.411 665.6,793.6L665.6,435.2C665.6,421.062 677.061,409.6 691.2,409.6C705.339,409.6 716.8,421.062 716.8,435.2L716.8,793.6C716.8,920.643 613.443,1024 486.4,1024Z" style="fill-rule:nonzero;stroke:black;stroke-width:23.04px;"/>
    </g>
</svg>
