<?xml version="1.0" encoding="UTF-8" standalone="no"?>
<!DOCTYPE svg PUBLIC "-//W3C//DTD SVG 1.1//EN" "http://www.w3.org/Graphics/SVG/1.1/DTD/svg11.dtd">
<svg viewBox="0 0 40 40" version="1.1" xmlns="http://www.w3.org/2000/svg" xmlns:xlink="http://www.w3.org/1999/xlink" xml:space="preserve">
    <g transform="matrix(1,0,0,1,9.711,1.5)" class="vri">
        <path d="M15.289,36.5L5.289,36.5C2.529,36.5 0.289,34.196 0.289,31.357L0.289,5.643C0.289,2.835 2.482,0.548 5.289,0.5L15.289,0.5C18.095,0.548 20.289,2.835 20.289,5.643L20.289,31.357C20.289,34.196 18.048,36.5 15.289,36.5ZM10.5,25C8.016,25 6,27.016 6,29.5C6,31.984 8.016,34 10.5,34C12.984,34 15,31.984 15,29.5C15,27.016 12.984,25 10.5,25ZM10.5,14C8.016,14 6,16.016 6,18.5C6,20.984 8.016,23 10.5,23C12.984,23 15,20.984 15,18.5C15,16.016 12.984,14 10.5,14ZM10.5,3C8.016,3 6,5.016 6,7.5C6,9.984 8.016,12 10.5,12C12.984,12 15,9.984 15,7.5C15,5.016 12.984,3 10.5,3Z" style="fill:rgb(51,51,51);fill-rule:nonzero;"/>
    </g>
</svg>
