<?xml version="1.0" encoding="UTF-8" standalone="no"?>
<!DOCTYPE svg PUBLIC "-//W3C//DTD SVG 1.1//EN" "http://www.w3.org/Graphics/SVG/1.1/DTD/svg11.dtd">
<svg viewBox="0 0 40 40" version="1.1" xmlns="http://www.w3.org/2000/svg" xmlns:xlink="http://www.w3.org/1999/xlink" xml:space="preserve">
    <g class="wri">
        <g transform="matrix(0.933333,0,0,1,2.26667,-1)">
            <path d="M19,6L34,36L4,36L19,6Z" style="fill:none;stroke:rgb(51,51,51);stroke-width:3.1px;"/>
        </g>
        <g transform="matrix(1.93626,0,0,1.93626,-21.3404,-13.6321)">
            <path d="M22.033,16.419L21.828,20.222C21.824,20.351 21.777,20.457 21.688,20.541C21.598,20.625 21.484,20.667 21.348,20.667C21.215,20.667 21.104,20.625 21.014,20.541C20.924,20.457 20.875,20.351 20.867,20.222L20.668,16.419L20.668,16.361C20.668,16.134 20.729,15.955 20.85,15.825C20.971,15.694 21.137,15.628 21.348,15.628C21.563,15.628 21.731,15.694 21.852,15.825C21.973,15.955 22.033,16.134 22.033,16.361L22.033,16.419ZM20.258,22.167C20.258,21.894 20.358,21.671 20.56,21.499C20.761,21.327 21.026,21.242 21.351,21.242C21.679,21.242 21.921,21.327 22.122,21.499C22.323,21.671 22.443,21.894 22.443,22.167C22.443,22.445 22.343,22.67 22.142,22.844C21.94,23.018 21.676,23.105 21.348,23.105C21.023,23.105 20.761,23.017 20.56,22.841C20.358,22.665 20.258,22.441 20.258,22.167Z" style="fill:rgb(51,51,51);fill-rule:nonzero;"/>
        </g>
    </g>
</svg>
